<?xml version="1.0" encoding="UTF-8" standalone="no"?>
<!DOCTYPE svg PUBLIC "-//W3C//DTD SVG 1.1//EN"
 "http://www.w3.org/Graphics/SVG/1.1/DTD/svg11.dtd">
<!-- Generated by graphviz version 14.1.2 (0)
 -->
<!-- Pages: 1 -->
<svg width="630pt" height="455pt"
 viewBox="0.00 0.00 630.00 455.00" xmlns="http://www.w3.org/2000/svg" xmlns:xlink="http://www.w3.org/1999/xlink">
<g id="graph0" class="graph" transform="scale(1 1) rotate(0) translate(4 451.25)">
<polygon fill="white" stroke="none" points="-4,4 -4,-451.25 625.62,-451.25 625.62,4 -4,4"/>
<!-- NodeId(1) -->
<g id="node1" class="node">
<title>NodeId(1)</title>
<polygon fill="none" stroke="black" points="233.5,-125.25 96.75,-125.25 96.75,-89.25 233.5,-89.25 233.5,-125.25"/>
<text xml:space="preserve" text-anchor="middle" x="165.12" y="-102.58" font-family="Times,serif" font-size="14.00">signal</text>
</g>
<!-- &#39;a&#39; -->
<g id="node2" class="node">
<title>&#39;a&#39;</title>
<polygon fill="none" stroke="black" points="165.12,-36 133.63,-18 165.12,0 196.62,-18 165.12,-36"/>
<text xml:space="preserve" text-anchor="middle" x="165.12" y="-13.32" font-family="Times,serif" font-size="14.00">&#39;a&#39;</text>
</g>
<!-- NodeId(1)&#45;&gt;&#39;a&#39; -->
<g id="edge1" class="edge">
<title>NodeId(1)&#45;&gt;&#39;a&#39;</title>
<path fill="none" stroke="black" d="M165.12,-89.01C165.12,-77.26 165.12,-61.41 165.12,-47.77"/>
<polygon fill="black" stroke="black" points="168.63,-48.01 165.13,-38.01 161.63,-48.01 168.63,-48.01"/>
<text xml:space="preserve" text-anchor="middle" x="209.38" y="-57.95" font-family="Times,serif" font-size="14.00"></text>
</g>
<!-- NodeId(2) -->
<g id="node3" class="node">
<title>NodeId(2)</title>
<polygon fill="none" stroke="black" points="411.5,-125.25 274.75,-125.25 274.75,-89.25 411.5,-89.25 411.5,-125.25"/>
<text xml:space="preserve" text-anchor="middle" x="343.12" y="-102.58" font-family="Times,serif" font-size="14.00">signal</text>
</g>
<!-- &#39;b&#39; -->
<g id="node4" class="node">
<title>&#39;b&#39;</title>
<polygon fill="none" stroke="black" points="343.12,-36 310.88,-18 343.12,0 375.37,-18 343.12,-36"/>
<text xml:space="preserve" text-anchor="middle" x="343.12" y="-13.32" font-family="Times,serif" font-size="14.00">&#39;b&#39;</text>
</g>
<!-- NodeId(2)&#45;&gt;&#39;b&#39; -->
<g id="edge2" class="edge">
<title>NodeId(2)&#45;&gt;&#39;b&#39;</title>
<path fill="none" stroke="black" d="M343.12,-89.01C343.12,-77.26 343.12,-61.41 343.12,-47.77"/>
<polygon fill="black" stroke="black" points="346.63,-48.01 343.13,-38.01 339.63,-48.01 346.63,-48.01"/>
<text xml:space="preserve" text-anchor="middle" x="387.38" y="-57.95" font-family="Times,serif" font-size="14.00"></text>
</g>
<!-- NodeId(3) -->
<g id="node5" class="node">
<title>NodeId(3)</title>
<polygon fill="none" stroke="black" points="601.5,-125.25 464.75,-125.25 464.75,-89.25 601.5,-89.25 601.5,-125.25"/>
<text xml:space="preserve" text-anchor="middle" x="533.12" y="-102.58" font-family="Times,serif" font-size="14.00">signal</text>
</g>
<!-- &#39;c&#39; -->
<g id="node6" class="node">
<title>&#39;c&#39;</title>
<polygon fill="none" stroke="black" points="533.12,-36 502.37,-18 533.12,0 563.88,-18 533.12,-36"/>
<text xml:space="preserve" text-anchor="middle" x="533.12" y="-13.32" font-family="Times,serif" font-size="14.00">&#39;c&#39;</text>
</g>
<!-- NodeId(3)&#45;&gt;&#39;c&#39; -->
<g id="edge3" class="edge">
<title>NodeId(3)&#45;&gt;&#39;c&#39;</title>
<path fill="none" stroke="black" d="M533.12,-89.01C533.12,-77.26 533.12,-61.41 533.12,-47.77"/>
<polygon fill="black" stroke="black" points="536.63,-48.01 533.13,-38.01 529.63,-48.01 536.63,-48.01"/>
<text xml:space="preserve" text-anchor="middle" x="577.38" y="-57.95" font-family="Times,serif" font-size="14.00"></text>
</g>
<!-- NodeId(4) -->
<g id="node7" class="node">
<title>NodeId(4)</title>
<polygon fill="none" stroke="black" points="150.25,-214.5 0,-214.5 0,-178.5 150.25,-178.5 150.25,-214.5"/>
<text xml:space="preserve" text-anchor="middle" x="75.12" y="-191.82" font-family="Times,serif" font-size="14.00">seq-bool</text>
</g>
<!-- NodeId(4)&#45;&gt;NodeId(1) -->
<g id="edge4" class="edge">
<title>NodeId(4)&#45;&gt;NodeId(1)</title>
<path fill="none" stroke="black" d="M92.91,-178.26C106.22,-165.36 124.62,-147.51 139.52,-133.07"/>
<polygon fill="black" stroke="black" points="141.55,-135.98 146.29,-126.51 136.68,-130.95 141.55,-135.98"/>
<text xml:space="preserve" text-anchor="middle" x="145.44" y="-147.2" font-family="Times,serif" font-size="14.00"></text>
</g>
<!-- NodeId(5) -->
<g id="node8" class="node">
<title>NodeId(5)</title>
<polygon fill="none" stroke="black" points="344.25,-214.5 194,-214.5 194,-178.5 344.25,-178.5 344.25,-214.5"/>
<text xml:space="preserve" text-anchor="middle" x="269.12" y="-191.82" font-family="Times,serif" font-size="14.00">seq-bool</text>
</g>
<!-- NodeId(5)&#45;&gt;NodeId(2) -->
<g id="edge5" class="edge">
<title>NodeId(5)&#45;&gt;NodeId(2)</title>
<path fill="none" stroke="black" d="M283.75,-178.26C294.49,-165.6 309.26,-148.17 321.39,-133.88"/>
<polygon fill="black" stroke="black" points="323.76,-136.5 327.56,-126.61 318.42,-131.97 323.76,-136.5"/>
<text xml:space="preserve" text-anchor="middle" x="330" y="-147.2" font-family="Times,serif" font-size="14.00">child</text>
</g>
<!-- NodeId(6) -->
<g id="node9" class="node">
<title>NodeId(6)</title>
<polygon fill="none" stroke="black" points="353.25,-303.75 185,-303.75 185,-267.75 353.25,-267.75 353.25,-303.75"/>
<text xml:space="preserve" text-anchor="middle" x="269.12" y="-281.07" font-family="Times,serif" font-size="14.00">seq-concat</text>
</g>
<!-- NodeId(6)&#45;&gt;NodeId(4) -->
<g id="edge6" class="edge">
<title>NodeId(6)&#45;&gt;NodeId(4)</title>
<path fill="none" stroke="black" d="M230.33,-267.3C199.8,-253.57 157.06,-234.35 124.16,-219.55"/>
<polygon fill="black" stroke="black" points="125.79,-216.45 115.23,-215.54 122.92,-222.83 125.79,-216.45"/>
<text xml:space="preserve" text-anchor="middle" x="218.75" y="-236.45" font-family="Times,serif" font-size="14.00"></text>
</g>
<!-- NodeId(6)&#45;&gt;NodeId(5) -->
<g id="edge7" class="edge">
<title>NodeId(6)&#45;&gt;NodeId(5)</title>
<path fill="none" stroke="black" d="M269.12,-267.51C269.12,-255.68 269.12,-239.7 269.12,-226"/>
<polygon fill="black" stroke="black" points="272.63,-226.22 269.13,-216.22 265.63,-226.22 272.63,-226.22"/>
<text xml:space="preserve" text-anchor="middle" x="298.38" y="-236.45" font-family="Times,serif" font-size="14.00"></text>
</g>
<!-- NodeId(7) -->
<g id="node10" class="node">
<title>NodeId(7)</title>
<polygon fill="none" stroke="black" points="546.62,-214.5 389.62,-214.5 389.62,-178.5 546.62,-178.5 546.62,-214.5"/>
<text xml:space="preserve" text-anchor="middle" x="468.12" y="-191.82" font-family="Times,serif" font-size="14.00">prop-bool</text>
</g>
<!-- NodeId(7)&#45;&gt;NodeId(3) -->
<g id="edge8" class="edge">
<title>NodeId(7)&#45;&gt;NodeId(3)</title>
<path fill="none" stroke="black" d="M480.97,-178.26C490.31,-165.71 503.14,-148.5 513.73,-134.28"/>
<polygon fill="black" stroke="black" points="516.24,-136.78 519.41,-126.67 510.62,-132.59 516.24,-136.78"/>
<text xml:space="preserve" text-anchor="middle" x="523.7" y="-147.2" font-family="Times,serif" font-size="14.00"></text>
</g>
<!-- NodeId(8) -->
<g id="node11" class="node">
<title>NodeId(8)</title>
<polygon fill="none" stroke="black" points="551,-303.75 375.25,-303.75 375.25,-267.75 551,-267.75 551,-303.75"/>
<text xml:space="preserve" text-anchor="middle" x="463.12" y="-281.07" font-family="Times,serif" font-size="14.00">prop-always</text>
</g>
<!-- NodeId(8)&#45;&gt;NodeId(7) -->
<g id="edge9" class="edge">
<title>NodeId(8)&#45;&gt;NodeId(7)</title>
<path fill="none" stroke="black" d="M464.11,-267.51C464.79,-255.68 465.71,-239.7 466.49,-226"/>
<polygon fill="black" stroke="black" points="469.97,-226.4 467.05,-216.21 462.99,-226 469.97,-226.4"/>
<text xml:space="preserve" text-anchor="middle" x="483.32" y="-236.45" font-family="Times,serif" font-size="14.00"></text>
</g>
<!-- NodeId(9) -->
<g id="node12" class="node">
<title>NodeId(9)</title>
<polygon fill="none" stroke="black" points="507.25,-393 219,-393 219,-357 507.25,-357 507.25,-393"/>
<text xml:space="preserve" text-anchor="middle" x="363.12" y="-370.32" font-family="Times,serif" font-size="14.00">prop-overlapped-implication</text>
</g>
<!-- NodeId(9)&#45;&gt;NodeId(6) -->
<g id="edge10" class="edge">
<title>NodeId(9)&#45;&gt;NodeId(6)</title>
<path fill="none" stroke="black" d="M344.55,-356.76C330.65,-343.86 311.43,-326.01 295.87,-311.57"/>
<polygon fill="black" stroke="black" points="298.48,-309.22 288.77,-304.98 293.72,-314.35 298.48,-309.22"/>
<text xml:space="preserve" text-anchor="middle" x="346.29" y="-325.7" font-family="Times,serif" font-size="14.00">child1</text>
</g>
<!-- NodeId(9)&#45;&gt;NodeId(8) -->
<g id="edge11" class="edge">
<title>NodeId(9)&#45;&gt;NodeId(8)</title>
<path fill="none" stroke="black" d="M382.88,-356.76C397.81,-343.74 418.5,-325.68 435.13,-311.17"/>
<polygon fill="black" stroke="black" points="437.03,-314.16 442.27,-304.95 432.43,-308.88 437.03,-314.16"/>
<text xml:space="preserve" text-anchor="middle" x="443.83" y="-325.7" font-family="Times,serif" font-size="14.00">child2</text>
</g>
<!-- __NODENAME__a -->
<g id="node13" class="node">
<title>__NODENAME__a</title>
<text xml:space="preserve" text-anchor="start" x="168" y="-192.82" font-family="Times,serif" text-decoration="underline" font-size="14.00">a</text>
</g>
<!-- __NODENAME__a&#45;&gt;NodeId(1) -->
<g id="edge12" class="edge">
<title>__NODENAME__a&#45;&gt;NodeId(1)</title>
<path fill="none" stroke="black" stroke-dasharray="5,2" d="M171.53,-188.06C170.63,-176.82 168.87,-154.92 167.42,-136.9"/>
<polygon fill="black" stroke="black" points="170.92,-136.69 166.63,-127 163.94,-137.25 170.92,-136.69"/>
</g>
<!-- __NODENAME__b -->
<g id="node14" class="node">
<title>__NODENAME__b</title>
<text xml:space="preserve" text-anchor="start" x="362.62" y="-192.82" font-family="Times,serif" text-decoration="underline" font-size="14.00">b</text>
</g>
<!-- __NODENAME__b&#45;&gt;NodeId(2) -->
<g id="edge13" class="edge">
<title>__NODENAME__b&#45;&gt;NodeId(2)</title>
<path fill="none" stroke="black" stroke-dasharray="5,2" d="M365.08,-188.06C361.96,-176.72 355.85,-154.5 350.86,-136.38"/>
<polygon fill="black" stroke="black" points="354.3,-135.66 348.27,-126.95 347.55,-137.52 354.3,-135.66"/>
</g>
<!-- __NODENAME__c -->
<g id="node15" class="node">
<title>__NODENAME__c</title>
<text xml:space="preserve" text-anchor="start" x="564.38" y="-192.82" font-family="Times,serif" text-decoration="underline" font-size="14.00">c</text>
</g>
<!-- __NODENAME__c&#45;&gt;NodeId(3) -->
<g id="edge14" class="edge">
<title>__NODENAME__c&#45;&gt;NodeId(3)</title>
<path fill="none" stroke="black" stroke-dasharray="5,2" d="M565.14,-188.06C560.57,-176.66 551.59,-154.29 544.31,-136.12"/>
<polygon fill="black" stroke="black" points="547.58,-134.87 540.6,-126.9 541.08,-137.48 547.58,-134.87"/>
</g>
<!-- __NODENAME__p -->
<g id="node16" class="node">
<title>__NODENAME__p</title>
<text xml:space="preserve" text-anchor="start" x="358.62" y="-434.95" font-family="Times,serif" text-decoration="underline" font-size="14.00">p</text>
</g>
<!-- __NODENAME__p&#45;&gt;NodeId(9) -->
<g id="edge15" class="edge">
<title>__NODENAME__p&#45;&gt;NodeId(9)</title>
<path fill="none" stroke="black" stroke-dasharray="5,2" d="M363.12,-430.07C363.12,-423.7 363.12,-414.15 363.12,-404.84"/>
<polygon fill="black" stroke="black" points="366.63,-404.96 363.13,-394.96 359.63,-404.96 366.63,-404.96"/>
</g>
</g>
</svg>
