<?xml version="1.0" encoding="UTF-8" standalone="no"?>
<!DOCTYPE svg PUBLIC "-//W3C//DTD SVG 1.1//EN"
 "http://www.w3.org/Graphics/SVG/1.1/DTD/svg11.dtd">
<!-- Generated by graphviz version 14.1.2 (0)
 -->
<!-- Pages: 1 -->
<svg width="585pt" height="455pt"
 viewBox="0.00 0.00 585.00 455.00" xmlns="http://www.w3.org/2000/svg" xmlns:xlink="http://www.w3.org/1999/xlink">
<g id="graph0" class="graph" transform="scale(1 1) rotate(0) translate(4 451.25)">
<polygon fill="white" stroke="none" points="-4,4 -4,-451.25 581.25,-451.25 581.25,4 -4,4"/>
<!-- NodeId(1) -->
<g id="node1" class="node">
<title>NodeId(1)</title>
<polygon fill="none" stroke="black" points="557.12,-214.5 420.38,-214.5 420.38,-178.5 557.12,-178.5 557.12,-214.5"/>
<text xml:space="preserve" text-anchor="middle" x="488.75" y="-191.82" font-family="Times,serif" font-size="14.00">signal</text>
</g>
<!-- &#39;a&#39; -->
<g id="node2" class="node">
<title>&#39;a&#39;</title>
<polygon fill="none" stroke="black" points="488.75,-125.25 457.25,-107.25 488.75,-89.25 520.25,-107.25 488.75,-125.25"/>
<text xml:space="preserve" text-anchor="middle" x="488.75" y="-102.58" font-family="Times,serif" font-size="14.00">&#39;a&#39;</text>
</g>
<!-- NodeId(1)&#45;&gt;&#39;a&#39; -->
<g id="edge1" class="edge">
<title>NodeId(1)&#45;&gt;&#39;a&#39;</title>
<path fill="none" stroke="black" d="M488.75,-178.26C488.75,-166.51 488.75,-150.66 488.75,-137.02"/>
<polygon fill="black" stroke="black" points="492.25,-137.26 488.75,-127.26 485.25,-137.26 492.25,-137.26"/>
<text xml:space="preserve" text-anchor="middle" x="533" y="-147.2" font-family="Times,serif" font-size="14.00"></text>
</g>
<!-- NodeId(3) -->
<g id="node3" class="node">
<title>NodeId(3)</title>
<polygon fill="none" stroke="black" points="492.25,-303.75 335.25,-303.75 335.25,-267.75 492.25,-267.75 492.25,-303.75"/>
<text xml:space="preserve" text-anchor="middle" x="413.75" y="-281.07" font-family="Times,serif" font-size="14.00">prop-bool</text>
</g>
<!-- NodeId(3)&#45;&gt;NodeId(1) -->
<g id="edge2" class="edge">
<title>NodeId(3)&#45;&gt;NodeId(1)</title>
<path fill="none" stroke="black" d="M428.57,-267.51C439.46,-254.85 454.43,-237.42 466.72,-223.13"/>
<polygon fill="black" stroke="black" points="469.11,-225.71 472.98,-215.85 463.8,-221.15 469.11,-225.71"/>
<text xml:space="preserve" text-anchor="middle" x="475.22" y="-236.45" font-family="Times,serif" font-size="14.00"></text>
</g>
<!-- NodeId(4) -->
<g id="node4" class="node">
<title>NodeId(4)</title>
<polygon fill="none" stroke="black" points="236.88,-125.25 80.62,-125.25 80.62,-89.25 236.88,-89.25 236.88,-125.25"/>
<text xml:space="preserve" text-anchor="middle" x="158.75" y="-102.58" font-family="Times,serif" font-size="14.00">constant</text>
</g>
<!-- True -->
<g id="node5" class="node">
<title>True</title>
<polygon fill="none" stroke="black" points="158.75,-36 110.14,-18 158.75,0 207.36,-18 158.75,-36"/>
<text xml:space="preserve" text-anchor="middle" x="158.75" y="-13.32" font-family="Times,serif" font-size="14.00">true</text>
</g>
<!-- NodeId(4)&#45;&gt;True -->
<g id="edge3" class="edge">
<title>NodeId(4)&#45;&gt;True</title>
<path fill="none" stroke="black" d="M158.75,-89.01C158.75,-77.26 158.75,-61.41 158.75,-47.77"/>
<polygon fill="black" stroke="black" points="162.25,-48.01 158.75,-38.01 155.25,-48.01 162.25,-48.01"/>
<text xml:space="preserve" text-anchor="middle" x="177.88" y="-57.95" font-family="Times,serif" font-size="14.00"></text>
</g>
<!-- NodeId(5) -->
<g id="node6" class="node">
<title>NodeId(5)</title>
<polygon fill="none" stroke="black" points="233.88,-214.5 83.62,-214.5 83.62,-178.5 233.88,-178.5 233.88,-214.5"/>
<text xml:space="preserve" text-anchor="middle" x="158.75" y="-191.82" font-family="Times,serif" font-size="14.00">seq-bool</text>
</g>
<!-- NodeId(5)&#45;&gt;NodeId(4) -->
<g id="edge4" class="edge">
<title>NodeId(5)&#45;&gt;NodeId(4)</title>
<path fill="none" stroke="black" d="M158.75,-178.26C158.75,-166.43 158.75,-150.45 158.75,-136.75"/>
<polygon fill="black" stroke="black" points="162.25,-136.97 158.75,-126.97 155.25,-136.97 162.25,-136.97"/>
<text xml:space="preserve" text-anchor="middle" x="176" y="-147.2" font-family="Times,serif" font-size="14.00"></text>
</g>
<!-- NodeId(6) -->
<g id="node7" class="node">
<title>NodeId(6)</title>
<polygon fill="none" stroke="black" points="317.5,-303.75 0,-303.75 0,-267.75 317.5,-267.75 317.5,-303.75"/>
<text xml:space="preserve" text-anchor="middle" x="158.75" y="-281.07" font-family="Times,serif" font-size="14.00">prop-non-overlapped-implication</text>
</g>
<!-- NodeId(6)&#45;&gt;NodeId(5) -->
<g id="edge5" class="edge">
<title>NodeId(6)&#45;&gt;NodeId(5)</title>
<path fill="none" stroke="black" d="M158.75,-267.51C158.75,-255.68 158.75,-239.7 158.75,-226"/>
<polygon fill="black" stroke="black" points="162.25,-226.22 158.75,-216.22 155.25,-226.22 162.25,-226.22"/>
<text xml:space="preserve" text-anchor="middle" x="180.5" y="-236.45" font-family="Times,serif" font-size="14.00">child1</text>
</g>
<!-- NodeId(7) -->
<g id="node8" class="node">
<title>NodeId(7)</title>
<polygon fill="none" stroke="black" points="317.38,-393 164.12,-393 164.12,-357 317.38,-357 317.38,-393"/>
<text xml:space="preserve" text-anchor="middle" x="240.75" y="-370.32" font-family="Times,serif" font-size="14.00">prop-and</text>
</g>
<!-- NodeId(6)&#45;&gt;NodeId(7) -->
<g id="edge6" class="edge">
<title>NodeId(6)&#45;&gt;NodeId(7)</title>
<path fill="none" stroke="black" d="M197.06,-304.11C204.96,-308.98 212.7,-314.86 218.75,-321.75 224.89,-328.74 229.5,-337.7 232.86,-346.21"/>
<polygon fill="black" stroke="black" points="229.51,-347.23 236.1,-355.52 236.12,-344.93 229.51,-347.23"/>
<text xml:space="preserve" text-anchor="middle" x="251.29" y="-325.7" font-family="Times,serif" font-size="14.00">child2</text>
</g>
<!-- NodeId(7)&#45;&gt;NodeId(3) -->
<g id="edge7" class="edge">
<title>NodeId(7)&#45;&gt;NodeId(3)</title>
<path fill="none" stroke="black" d="M275.34,-356.55C302.33,-342.94 340.02,-323.93 369.26,-309.19"/>
<polygon fill="black" stroke="black" points="370.51,-312.48 377.87,-304.85 367.36,-306.23 370.51,-312.48"/>
<text xml:space="preserve" text-anchor="middle" x="372" y="-325.7" font-family="Times,serif" font-size="14.00"></text>
</g>
<!-- NodeId(7)&#45;&gt;NodeId(6) -->
<g id="edge8" class="edge">
<title>NodeId(7)&#45;&gt;NodeId(6)</title>
<path fill="none" stroke="black" d="M175.25,-356.58C167.77,-352.02 161.1,-346.26 156.25,-339 151.65,-332.12 150.65,-323.53 151.25,-315.3"/>
<polygon fill="black" stroke="black" points="154.68,-316.06 152.75,-305.64 147.76,-314.99 154.68,-316.06"/>
<text xml:space="preserve" text-anchor="middle" x="185.5" y="-325.7" font-family="Times,serif" font-size="14.00"></text>
</g>
<!-- __NODENAME__a -->
<g id="node9" class="node">
<title>__NODENAME__a</title>
<text xml:space="preserve" text-anchor="start" x="510.62" y="-282.07" font-family="Times,serif" text-decoration="underline" font-size="14.00">a</text>
</g>
<!-- __NODENAME__a&#45;&gt;NodeId(1) -->
<g id="edge9" class="edge">
<title>__NODENAME__a&#45;&gt;NodeId(1)</title>
<path fill="none" stroke="black" stroke-dasharray="5,2" d="M512.53,-277.31C509.15,-265.97 502.53,-243.75 497.13,-225.63"/>
<polygon fill="black" stroke="black" points="500.53,-224.78 494.32,-216.19 493.82,-226.77 500.53,-224.78"/>
</g>
<!-- __NODENAME__always_a -->
<g id="node10" class="node">
<title>__NODENAME__always_a</title>
<text xml:space="preserve" text-anchor="start" x="208.88" y="-434.95" font-family="Times,serif" text-decoration="underline" font-size="14.00">always_a</text>
</g>
<!-- __NODENAME__always_a&#45;&gt;NodeId(7) -->
<g id="edge10" class="edge">
<title>__NODENAME__always_a&#45;&gt;NodeId(7)</title>
<path fill="none" stroke="black" stroke-dasharray="5,2" d="M240.75,-430.07C240.75,-423.7 240.75,-414.15 240.75,-404.84"/>
<polygon fill="black" stroke="black" points="244.25,-404.96 240.75,-394.96 237.25,-404.96 244.25,-404.96"/>
</g>
</g>
</svg>
