<?xml version="1.0" encoding="UTF-8" standalone="no"?>
<!DOCTYPE svg PUBLIC "-//W3C//DTD SVG 1.1//EN"
 "http://www.w3.org/Graphics/SVG/1.1/DTD/svg11.dtd">
<!-- Generated by graphviz version 14.1.2 (0)
 -->
<!-- Pages: 1 -->
<svg width="815pt" height="653pt"
 viewBox="0.00 0.00 815.00 653.00" xmlns="http://www.w3.org/2000/svg" xmlns:xlink="http://www.w3.org/1999/xlink">
<g id="graph0" class="graph" transform="scale(1 1) rotate(0) translate(4 648.5)">
<polygon fill="white" stroke="none" points="-4,4 -4,-648.5 810.75,-648.5 810.75,4 -4,4"/>
<!-- NodeId(1) -->
<g id="node1" class="node">
<title>NodeId(1)</title>
<polygon fill="none" stroke="black" points="175.88,-411.75 39.12,-411.75 39.12,-375.75 175.88,-375.75 175.88,-411.75"/>
<text xml:space="preserve" text-anchor="middle" x="107.5" y="-389.07" font-family="Times,serif" font-size="14.00">signal</text>
</g>
<!-- &#39;a&#39; -->
<g id="node2" class="node">
<title>&#39;a&#39;</title>
<polygon fill="none" stroke="black" points="107.5,-322.5 76,-304.5 107.5,-286.5 139,-304.5 107.5,-322.5"/>
<text xml:space="preserve" text-anchor="middle" x="107.5" y="-299.82" font-family="Times,serif" font-size="14.00">&#39;a&#39;</text>
</g>
<!-- NodeId(1)&#45;&gt;&#39;a&#39; -->
<g id="edge1" class="edge">
<title>NodeId(1)&#45;&gt;&#39;a&#39;</title>
<path fill="none" stroke="black" d="M107.5,-375.51C107.5,-363.76 107.5,-347.91 107.5,-334.27"/>
<polygon fill="black" stroke="black" points="111,-334.51 107.5,-324.51 104,-334.51 111,-334.51"/>
<text xml:space="preserve" text-anchor="middle" x="151.75" y="-344.45" font-family="Times,serif" font-size="14.00"></text>
</g>
<!-- NodeId(2) -->
<g id="node3" class="node">
<title>NodeId(2)</title>
<polygon fill="none" stroke="black" points="433.88,-214.5 297.12,-214.5 297.12,-178.5 433.88,-178.5 433.88,-214.5"/>
<text xml:space="preserve" text-anchor="middle" x="365.5" y="-191.82" font-family="Times,serif" font-size="14.00">signal</text>
</g>
<!-- &#39;b&#39; -->
<g id="node4" class="node">
<title>&#39;b&#39;</title>
<polygon fill="none" stroke="black" points="365.5,-125.25 333.26,-107.25 365.5,-89.25 397.74,-107.25 365.5,-125.25"/>
<text xml:space="preserve" text-anchor="middle" x="365.5" y="-102.58" font-family="Times,serif" font-size="14.00">&#39;b&#39;</text>
</g>
<!-- NodeId(2)&#45;&gt;&#39;b&#39; -->
<g id="edge2" class="edge">
<title>NodeId(2)&#45;&gt;&#39;b&#39;</title>
<path fill="none" stroke="black" d="M365.5,-178.26C365.5,-166.51 365.5,-150.66 365.5,-137.02"/>
<polygon fill="black" stroke="black" points="369,-137.26 365.5,-127.26 362,-137.26 369,-137.26"/>
<text xml:space="preserve" text-anchor="middle" x="409.75" y="-147.2" font-family="Times,serif" font-size="14.00"></text>
</g>
<!-- NodeId(5) -->
<g id="node5" class="node">
<title>NodeId(5)</title>
<polygon fill="none" stroke="black" points="157,-501 0,-501 0,-465 157,-465 157,-501"/>
<text xml:space="preserve" text-anchor="middle" x="78.5" y="-478.32" font-family="Times,serif" font-size="14.00">prop-bool</text>
</g>
<!-- NodeId(5)&#45;&gt;NodeId(1) -->
<g id="edge3" class="edge">
<title>NodeId(5)&#45;&gt;NodeId(1)</title>
<path fill="none" stroke="black" d="M84.23,-464.76C88.2,-452.81 93.58,-436.63 98.17,-422.83"/>
<polygon fill="black" stroke="black" points="101.47,-423.98 101.31,-413.39 94.83,-421.77 101.47,-423.98"/>
<text xml:space="preserve" text-anchor="middle" x="112.85" y="-433.7" font-family="Times,serif" font-size="14.00"></text>
</g>
<!-- NodeId(6) -->
<g id="node6" class="node">
<title>NodeId(6)</title>
<polygon fill="none" stroke="black" points="318.62,-268.5 162.38,-268.5 162.38,-232.5 318.62,-232.5 318.62,-268.5"/>
<text xml:space="preserve" text-anchor="middle" x="240.5" y="-245.82" font-family="Times,serif" font-size="14.00">constant</text>
</g>
<!-- True -->
<g id="node7" class="node">
<title>True</title>
<polygon fill="none" stroke="black" points="277.5,-36 228.89,-18 277.5,0 326.11,-18 277.5,-36"/>
<text xml:space="preserve" text-anchor="middle" x="277.5" y="-13.32" font-family="Times,serif" font-size="14.00">true</text>
</g>
<!-- NodeId(6)&#45;&gt;True -->
<g id="edge4" class="edge">
<title>NodeId(6)&#45;&gt;True</title>
<path fill="none" stroke="black" d="M243.28,-232.18C249.65,-192.49 265.34,-94.75 273.06,-46.65"/>
<polygon fill="black" stroke="black" points="276.52,-47.21 274.65,-36.78 269.61,-46.1 276.52,-47.21"/>
<text xml:space="preserve" text-anchor="middle" x="276.61" y="-147.2" font-family="Times,serif" font-size="14.00"></text>
</g>
<!-- NodeId(7) -->
<g id="node8" class="node">
<title>NodeId(7)</title>
<polygon fill="none" stroke="black" points="353.62,-411.75 203.38,-411.75 203.38,-375.75 353.62,-375.75 353.62,-411.75"/>
<text xml:space="preserve" text-anchor="middle" x="278.5" y="-389.07" font-family="Times,serif" font-size="14.00">seq-bool</text>
</g>
<!-- NodeId(7)&#45;&gt;NodeId(6) -->
<g id="edge5" class="edge">
<title>NodeId(7)&#45;&gt;NodeId(6)</title>
<path fill="none" stroke="black" d="M273.84,-375.43C267.43,-351.6 255.81,-308.42 248.13,-279.85"/>
<polygon fill="black" stroke="black" points="251.57,-279.17 245.59,-270.42 244.81,-280.99 251.57,-279.17"/>
<text xml:space="preserve" text-anchor="middle" x="286.14" y="-344.45" font-family="Times,serif" font-size="14.00"></text>
</g>
<!-- NodeId(8) -->
<g id="node9" class="node">
<title>NodeId(8)</title>
<polygon fill="none" stroke="black" points="519.25,-501 201.75,-501 201.75,-465 519.25,-465 519.25,-501"/>
<text xml:space="preserve" text-anchor="middle" x="360.5" y="-478.32" font-family="Times,serif" font-size="14.00">prop-non-overlapped-implication</text>
</g>
<!-- NodeId(8)&#45;&gt;NodeId(7) -->
<g id="edge6" class="edge">
<title>NodeId(8)&#45;&gt;NodeId(7)</title>
<path fill="none" stroke="black" d="M328.23,-464.56C320.69,-459.54 313.1,-453.61 307,-447 300.4,-439.85 294.79,-430.88 290.35,-422.41"/>
<polygon fill="black" stroke="black" points="293.53,-420.94 286.01,-413.47 287.23,-423.99 293.53,-420.94"/>
<text xml:space="preserve" text-anchor="middle" x="328.75" y="-433.7" font-family="Times,serif" font-size="14.00">child1</text>
</g>
<!-- NodeId(14) -->
<g id="node10" class="node">
<title>NodeId(14)</title>
<polygon fill="none" stroke="black" points="562.62,-411.75 400.38,-411.75 400.38,-375.75 562.62,-375.75 562.62,-411.75"/>
<text xml:space="preserve" text-anchor="middle" x="481.5" y="-389.07" font-family="Times,serif" font-size="14.00">prop-and</text>
</g>
<!-- NodeId(8)&#45;&gt;NodeId(14) -->
<g id="edge7" class="edge">
<title>NodeId(8)&#45;&gt;NodeId(14)</title>
<path fill="none" stroke="black" d="M384.7,-464.55C402.91,-451.42 428.1,-433.25 448.22,-418.75"/>
<polygon fill="black" stroke="black" points="450.05,-421.74 456.12,-413.05 445.96,-416.06 450.05,-421.74"/>
<text xml:space="preserve" text-anchor="middle" x="453.59" y="-433.7" font-family="Times,serif" font-size="14.00">child2</text>
</g>
<!-- NodeId(10) -->
<g id="node12" class="node">
<title>NodeId(10)</title>
<polygon fill="none" stroke="black" points="462.5,-322.5 296.5,-322.5 296.5,-286.5 462.5,-286.5 462.5,-322.5"/>
<text xml:space="preserve" text-anchor="middle" x="379.5" y="-299.82" font-family="Times,serif" font-size="14.00">prop-bool</text>
</g>
<!-- NodeId(14)&#45;&gt;NodeId(10) -->
<g id="edge15" class="edge">
<title>NodeId(14)&#45;&gt;NodeId(10)</title>
<path fill="none" stroke="black" d="M443.47,-375.28C434.61,-370.3 425.57,-364.39 418,-357.75 409.54,-350.33 401.82,-340.75 395.55,-331.82"/>
<polygon fill="black" stroke="black" points="398.65,-330.16 390.19,-323.78 392.83,-334.04 398.65,-330.16"/>
<text xml:space="preserve" text-anchor="middle" x="447.25" y="-344.45" font-family="Times,serif" font-size="14.00"></text>
</g>
<!-- NodeId(13) -->
<g id="node15" class="node">
<title>NodeId(13)</title>
<polygon fill="none" stroke="black" points="806.75,-322.5 480.25,-322.5 480.25,-286.5 806.75,-286.5 806.75,-322.5"/>
<text xml:space="preserve" text-anchor="middle" x="643.5" y="-299.82" font-family="Times,serif" font-size="14.00">prop-non-overlapped-implication</text>
</g>
<!-- NodeId(14)&#45;&gt;NodeId(13) -->
<g id="edge16" class="edge">
<title>NodeId(14)&#45;&gt;NodeId(13)</title>
<path fill="none" stroke="black" d="M498.47,-375.31C510.14,-364.12 526.46,-349.96 543,-340.5 551.83,-335.45 561.52,-330.95 571.28,-327"/>
<polygon fill="black" stroke="black" points="572.37,-330.33 580.45,-323.47 569.86,-323.79 572.37,-330.33"/>
<text xml:space="preserve" text-anchor="middle" x="572.25" y="-344.45" font-family="Times,serif" font-size="14.00"></text>
</g>
<!-- NodeId(9) -->
<g id="node11" class="node">
<title>NodeId(9)</title>
<polygon fill="none" stroke="black" points="437.12,-590.25 283.88,-590.25 283.88,-554.25 437.12,-554.25 437.12,-590.25"/>
<text xml:space="preserve" text-anchor="middle" x="360.5" y="-567.58" font-family="Times,serif" font-size="14.00">prop-and</text>
</g>
<!-- NodeId(9)&#45;&gt;NodeId(5) -->
<g id="edge8" class="edge">
<title>NodeId(9)&#45;&gt;NodeId(5)</title>
<path fill="none" stroke="black" d="M304.11,-553.8C258.48,-539.69 194.09,-519.76 145.77,-504.81"/>
<polygon fill="black" stroke="black" points="146.83,-501.48 136.24,-501.86 144.76,-508.16 146.83,-501.48"/>
<text xml:space="preserve" text-anchor="middle" x="274.01" y="-522.95" font-family="Times,serif" font-size="14.00"></text>
</g>
<!-- NodeId(9)&#45;&gt;NodeId(8) -->
<g id="edge9" class="edge">
<title>NodeId(9)&#45;&gt;NodeId(8)</title>
<path fill="none" stroke="black" d="M360.5,-554.01C360.5,-542.18 360.5,-526.2 360.5,-512.5"/>
<polygon fill="black" stroke="black" points="364,-512.72 360.5,-502.72 357,-512.72 364,-512.72"/>
<text xml:space="preserve" text-anchor="middle" x="389.75" y="-522.95" font-family="Times,serif" font-size="14.00"></text>
</g>
<!-- NodeId(10)&#45;&gt;NodeId(2) -->
<g id="edge10" class="edge">
<title>NodeId(10)&#45;&gt;NodeId(2)</title>
<path fill="none" stroke="black" d="M377.25,-286.47C375.1,-270.19 371.82,-245.32 369.27,-226.02"/>
<polygon fill="black" stroke="black" points="372.77,-225.8 367.99,-216.34 365.83,-226.71 372.77,-225.8"/>
<text xml:space="preserve" text-anchor="middle" x="391.82" y="-245.82" font-family="Times,serif" font-size="14.00"></text>
</g>
<!-- NodeId(11) -->
<g id="node13" class="node">
<title>NodeId(11)</title>
<polygon fill="none" stroke="black" points="625.12,-125.25 459.88,-125.25 459.88,-89.25 625.12,-89.25 625.12,-125.25"/>
<text xml:space="preserve" text-anchor="middle" x="542.5" y="-102.58" font-family="Times,serif" font-size="14.00">constant</text>
</g>
<!-- NodeId(11)&#45;&gt;True -->
<g id="edge11" class="edge">
<title>NodeId(11)&#45;&gt;True</title>
<path fill="none" stroke="black" d="M489.51,-88.8C437.16,-71.57 358.52,-45.67 313.18,-30.75"/>
<polygon fill="black" stroke="black" points="314.44,-27.48 303.85,-27.67 312.25,-34.13 314.44,-27.48"/>
<text xml:space="preserve" text-anchor="middle" x="452.86" y="-57.95" font-family="Times,serif" font-size="14.00"></text>
</g>
<!-- NodeId(12) -->
<g id="node14" class="node">
<title>NodeId(12)</title>
<polygon fill="none" stroke="black" points="667.12,-214.5 507.88,-214.5 507.88,-178.5 667.12,-178.5 667.12,-214.5"/>
<text xml:space="preserve" text-anchor="middle" x="587.5" y="-191.82" font-family="Times,serif" font-size="14.00">seq-bool</text>
</g>
<!-- NodeId(12)&#45;&gt;NodeId(11) -->
<g id="edge12" class="edge">
<title>NodeId(12)&#45;&gt;NodeId(11)</title>
<path fill="none" stroke="black" d="M578.61,-178.26C572.32,-166.07 563.77,-149.48 556.56,-135.51"/>
<polygon fill="black" stroke="black" points="559.76,-134.08 552.07,-126.8 553.54,-137.29 559.76,-134.08"/>
<text xml:space="preserve" text-anchor="middle" x="586.28" y="-147.2" font-family="Times,serif" font-size="14.00"></text>
</g>
<!-- NodeId(13)&#45;&gt;NodeId(9) -->
<g id="edge14" class="edge">
<title>NodeId(13)&#45;&gt;NodeId(9)</title>
<path fill="none" stroke="black" d="M643.82,-322.79C643.55,-360.5 637.5,-450.78 588.5,-501 552.01,-538.4 496.13,-555.99 448.82,-564.23"/>
<polygon fill="black" stroke="black" points="448.43,-560.74 439.12,-565.79 449.55,-567.66 448.43,-560.74"/>
<text xml:space="preserve" text-anchor="middle" x="649.93" y="-433.7" font-family="Times,serif" font-size="14.00">child2</text>
</g>
<!-- NodeId(13)&#45;&gt;NodeId(12) -->
<g id="edge13" class="edge">
<title>NodeId(13)&#45;&gt;NodeId(12)</title>
<path fill="none" stroke="black" d="M634.5,-286.47C625.74,-269.88 612.27,-244.38 601.99,-224.93"/>
<polygon fill="black" stroke="black" points="605.13,-223.39 597.37,-216.18 598.94,-226.66 605.13,-223.39"/>
<text xml:space="preserve" text-anchor="middle" x="645.54" y="-245.82" font-family="Times,serif" font-size="14.00">child1</text>
</g>
<!-- __NODENAME__a -->
<g id="node16" class="node">
<title>__NODENAME__a</title>
<text xml:space="preserve" text-anchor="start" x="175.38" y="-479.32" font-family="Times,serif" text-decoration="underline" font-size="14.00">a</text>
</g>
<!-- __NODENAME__a&#45;&gt;NodeId(1) -->
<g id="edge17" class="edge">
<title>__NODENAME__a&#45;&gt;NodeId(1)</title>
<path fill="none" stroke="black" stroke-dasharray="5,2" d="M175.46,-476.59C172.93,-473.23 169.57,-468.83 166.5,-465 154.6,-450.16 140.96,-433.87 129.8,-420.72"/>
<polygon fill="black" stroke="black" points="132.65,-418.67 123.5,-413.33 127.32,-423.21 132.65,-418.67"/>
</g>
<!-- __NODENAME__b -->
<g id="node17" class="node">
<title>__NODENAME__b</title>
<text xml:space="preserve" text-anchor="start" x="269" y="-300.82" font-family="Times,serif" text-decoration="underline" font-size="14.00">b</text>
</g>
<!-- __NODENAME__b&#45;&gt;NodeId(2) -->
<g id="edge18" class="edge">
<title>__NODENAME__b&#45;&gt;NodeId(2)</title>
<path fill="none" stroke="black" stroke-dasharray="5,2" d="M277.93,-297.03C280.47,-293.63 283.87,-289.54 287.5,-286.5 300.01,-276.02 307.61,-279.67 319.5,-268.5 332.77,-256.04 343.97,-239 351.99,-224.74"/>
<polygon fill="black" stroke="black" points="354.89,-226.75 356.55,-216.29 348.72,-223.44 354.89,-226.75"/>
</g>
<!-- __NODENAME__prop1 -->
<g id="node18" class="node">
<title>__NODENAME__prop1</title>
<text xml:space="preserve" text-anchor="start" x="339.5" y="-632.2" font-family="Times,serif" text-decoration="underline" font-size="14.00">prop1</text>
</g>
<!-- __NODENAME__prop1&#45;&gt;NodeId(9) -->
<g id="edge19" class="edge">
<title>__NODENAME__prop1&#45;&gt;NodeId(9)</title>
<path fill="none" stroke="black" stroke-dasharray="5,2" d="M360.5,-627.32C360.5,-620.95 360.5,-611.4 360.5,-602.09"/>
<polygon fill="black" stroke="black" points="364,-602.21 360.5,-592.21 357,-602.21 364,-602.21"/>
</g>
<!-- __NODENAME__prop2 -->
<g id="node19" class="node">
<title>__NODENAME__prop2</title>
<text xml:space="preserve" text-anchor="start" x="537.5" y="-479.32" font-family="Times,serif" text-decoration="underline" font-size="14.00">prop2</text>
</g>
<!-- __NODENAME__prop2&#45;&gt;NodeId(14) -->
<g id="edge20" class="edge">
<title>__NODENAME__prop2&#45;&gt;NodeId(14)</title>
<path fill="none" stroke="black" stroke-dasharray="5,2" d="M551.94,-474.56C541.5,-462.73 520.63,-439.08 504.3,-420.58"/>
<polygon fill="black" stroke="black" points="506.96,-418.31 497.72,-413.13 501.71,-422.94 506.96,-418.31"/>
</g>
</g>
</svg>
